Coordinates
version=1
nRows=26
nColumns=24
inDegrees=yes

Units are S.I. units (second, meters, Newtons, ...)
Angles are in degrees.

endheader
time	pelvis_tilt	pelvis_list	pelvis_rotation	pelvis_tx	pelvis_ty	pelvis_tz	hip_flexion_r	hip_adduction_r	hip_rotation_r	knee_angle_r	ankle_angle_r	subtalar_angle_r	mtp_angle_r	hip_flexion_l	hip_adduction_l	hip_rotation_l	knee_angle_l	ankle_angle_l	subtalar_angle_l	mtp_angle_l	lumbar_extension	lumbar_bending	lumbar_rotation
      5.34000000	     74.26338918	      0.65452932	     -2.19618548	      0.53365258	      0.96860260	     -0.30288770	     -5.21837387	    -16.21911295	     -9.01477592	    -66.39256117	    -25.82527929	      0.00000000	      0.00000000	     -4.75458312	     -6.84764489	     -0.05441673	    -61.35549210	    -32.57715874	      0.00000000	      0.00000000	      0.00000000	      0.00000000	      0.00000000
      5.35000000	     74.28630063	      0.64714636	     -2.20741249	      0.53363918	      0.96864220	     -0.30287345	     -5.24976005	    -16.21738175	     -9.01490781	    -66.37807493	    -25.84972654	      0.00000000	      0.00000000	     -4.79396820	     -6.84268572	     -0.15806823	    -61.40886487	    -32.57481846	      0.00000000	      0.00000000	      0.00000000	      0.00000000	      0.00000000
      5.36000000	     74.30658302	      0.63993559	     -2.21909212	      0.53363213	      0.96867482	     -0.30286886	     -5.27778660	    -16.21657128	     -9.01676342	    -66.36601963	    -25.86418425	      0.00000000	      0.00000000	     -4.83086673	     -6.83824725	     -0.26208768	    -61.45743104	    -32.57050331	      0.00000000	      0.00000000	      0.00000000	      0.00000000	      0.00000000
      5.37000000	     74.32705740	      0.63386773	     -2.22987930	      0.53363397	      0.96870212	     -0.30286170	     -5.30558652	    -16.21513202	     -9.01899276	    -66.35683836	    -25.87198968	      0.00000000	      0.00000000	     -4.86679512	     -6.83322444	     -0.36303307	    -61.50252024	    -32.56544735	      0.00000000	      0.00000000	      0.00000000	      0.00000000	      0.00000000
      5.38000000	     74.34848092	      0.62917697	     -2.23911459	      0.53363475	      0.96872130	     -0.30285450	     -5.33264243	    -16.21227861	     -9.01822929	    -66.35049237	    -25.88288752	      0.00000000	      0.00000000	     -4.90165892	     -6.82800407	     -0.45824462	    -61.54627361	    -32.56190999	      0.00000000	      0.00000000	      0.00000000	      0.00000000	      0.00000000
      5.39000000	     74.36988837	      0.62539955	     -2.24626183	      0.53362433	      0.96872754	     -0.30286526	     -5.35566103	    -16.20871052	     -9.01003089	    -66.34642701	    -25.90902476	      0.00000000	      0.00000000	     -4.93398682	     -6.82435252	     -0.54624816	    -61.59056338	    -32.56220918	      0.00000000	      0.00000000	      0.00000000	      0.00000000	      0.00000000
      5.40000000	     74.38941934	      0.62119763	     -2.25107172	      0.53360096	      0.96872848	     -0.30288539	     -5.37057768	    -16.20577006	     -8.99068937	    -66.34391111	    -25.96055081	      0.00000000	      0.00000000	     -4.96117257	     -6.82359688	     -0.62699955	    -61.63584220	    -32.56758300	      0.00000000	      0.00000000	      0.00000000	      0.00000000	      0.00000000
      5.41000000	     74.40493837	      0.61509486	     -2.25470086	      0.53357283	      0.96874432	     -0.30286988	     -5.37484301	    -16.20331305	     -8.95952122	    -66.34272317	    -26.04193702	      0.00000000	      0.00000000	     -4.98029894	     -6.82465829	     -0.70159184	    -61.68067221	    -32.57751768	      0.00000000	      0.00000000	      0.00000000	      0.00000000	      0.00000000
      5.42000000	     74.41441129	      0.60745755	     -2.26039749	      0.53355118	      0.96877780	     -0.30280605	     -5.36893533	    -16.19820253	     -8.92004351	    -66.34357866	    -26.14997736	      0.00000000	      0.00000000	     -4.98963690	     -6.82407521	     -0.77131676	    -61.72229744	    -32.58993684	      0.00000000	      0.00000000	      0.00000000	      0.00000000	      0.00000000
      5.43000000	     74.41662400	      0.60140960	     -2.27141532	      0.53353808	      0.96878998	     -0.30277643	     -5.35627662	    -16.18676851	     -8.87794145	    -66.34741262	    -26.27396473	      0.00000000	      0.00000000	     -4.99015858	     -6.81912573	     -0.83611111	    -61.75780325	    -32.60204157	      0.00000000	      0.00000000	      0.00000000	      0.00000000	      0.00000000
      5.44000000	     74.41306510	      0.59917844	     -2.28547272	      0.53352863	      0.96875636	     -0.30284523	     -5.34124677	    -16.17153203	     -8.83653678	    -66.35351161	    -26.39765795	      0.00000000	      0.00000000	     -4.98596507	     -6.81128774	     -0.89358898	    -61.78503893	    -32.61123714	      0.00000000	      0.00000000	      0.00000000	      0.00000000	      0.00000000
      5.45000000	     74.40866884	      0.59841325	     -2.29347549	      0.53352181	      0.96872468	     -0.30291862	     -5.32770282	    -16.16275777	     -8.79660352	    -66.35884822	    -26.50168156	      0.00000000	      0.00000000	     -4.98326021	     -6.80503589	     -0.94048918	    -61.80301914	    -32.61577751	      0.00000000	      0.00000000	      0.00000000	      0.00000000	      0.00000000
      5.46000000	     74.40907942	      0.59595100	     -2.28916653	      0.53352039	      0.96875217	     -0.30287436	     -5.32059569	    -16.16818123	     -8.76369629	    -66.36035907	    -26.56592812	      0.00000000	      0.00000000	     -4.98805167	     -6.80220124	     -0.97577109	    -61.81182133	    -32.61505611	      0.00000000	      0.00000000	      0.00000000	      0.00000000	      0.00000000
      5.47000000	     74.41732173	      0.59363265	     -2.27833799	      0.53352295	      0.96881734	     -0.30276829	     -5.32774206	    -16.18343215	     -8.75225980	    -66.35744625	    -26.57364137	      0.00000000	      0.00000000	     -5.00386654	     -6.79893694	     -1.00182353	    -61.81213125	    -32.60962832	      0.00000000	      0.00000000	      0.00000000	      0.00000000	      0.00000000
      5.48000000	     74.43379504	      0.59621586	     -2.27305557	      0.53352244	      0.96885055	     -0.30275895	     -5.35705512	    -16.19741964	     -8.77663669	    -66.35132922	    -26.51773510	      0.00000000	      0.00000000	     -5.03142282	     -6.78976051	     -1.02213036	    -61.80488694	    -32.60108646	      0.00000000	      0.00000000	      0.00000000	      0.00000000	      0.00000000
      5.49000000	     74.45890883	      0.60407171	     -2.27719286	      0.53351701	      0.96883900	     -0.30285864	     -5.41065202	    -16.20579751	     -8.83698310	    -66.34242096	    -26.40593970	      0.00000000	      0.00000000	     -5.06994921	     -6.77411396	     -1.03801026	    -61.79127328	    -32.59181581	      0.00000000	      0.00000000	      0.00000000	      0.00000000	      0.00000000
      5.50000000	     74.49369259	      0.61249733	     -2.28311830	      0.53351127	      0.96883485	     -0.30293507	     -5.48273152	    -16.21377108	     -8.91696213	    -66.32989630	    -26.26008348	      0.00000000	      0.00000000	     -5.11784733	     -6.75780907	     -1.04801105	    -61.77283223	    -32.58455310	      0.00000000	      0.00000000	      0.00000000	      0.00000000	      0.00000000
      5.51000000	     74.53725075	      0.61790182	     -2.28208285	      0.53350525	      0.96886659	     -0.30293023	     -5.56328246	    -16.22655673	     -8.99515691	    -66.31388918	    -26.10894667	      0.00000000	      0.00000000	     -5.17197159	     -6.74808014	     -1.05030896	    -61.75138178	    -32.58170315	      0.00000000	      0.00000000	      0.00000000	      0.00000000	      0.00000000
      5.52000000	     74.58511813	      0.62047240	     -2.27241969	      0.53349524	      0.96891195	     -0.30290172	     -5.64244756	    -16.24273984	     -9.05664753	    -66.29669466	    -25.97892294	      0.00000000	      0.00000000	     -5.22713682	     -6.74806746	     -1.04524962	    -61.72871364	    -32.58454670	      0.00000000	      0.00000000	      0.00000000	      0.00000000	      0.00000000
      5.53000000	     74.63043184	      0.62174865	     -2.25842655	      0.53348080	      0.96894047	     -0.30289918	     -5.71220987	    -16.25675910	     -9.09638574	    -66.28164212	    -25.88704667	      0.00000000	      0.00000000	     -5.27709215	     -6.75583215	     -1.03561128	    -61.70619148	    -32.59259002	      0.00000000	      0.00000000	      0.00000000	      0.00000000	      0.00000000
      5.54000000	     74.66654019	      0.62254561	     -2.24540196	      0.53346588	      0.96894218	     -0.30291478	     -5.76639555	    -16.26443821	     -9.11648611	    -66.27128670	    -25.83842571	      0.00000000	      0.00000000	     -5.31629825	     -6.76733401	     -1.02473088	    -61.68433120	    -32.60331146	      0.00000000	      0.00000000	      0.00000000	      0.00000000	      0.00000000
      5.55000000	     74.68931013	      0.62306154	     -2.23651818	      0.53345604	      0.96892841	     -0.30292512	     -5.80082651	    -16.26577422	     -9.12208967	    -66.26647216	    -25.82777280	      0.00000000	      0.00000000	     -5.34106068	     -6.77967699	     -1.01425611	    -61.66248562	    -32.61252620	      0.00000000	      0.00000000	      0.00000000	      0.00000000	      0.00000000
      5.56000000	     74.69793475	      0.62355049	     -2.23254771	      0.53345214	      0.96891696	     -0.30292504	     -5.81418177	    -16.26399481	     -9.11852989	    -66.26662030	    -25.84340255	      0.00000000	      0.00000000	     -5.34963297	     -6.79202434	     -1.00325956	    -61.63896168	    -32.61548512	      0.00000000	      0.00000000	      0.00000000	      0.00000000	      0.00000000
      5.57000000	     74.69411829	      0.62446642	     -2.23266946	      0.53345021	      0.96891433	     -0.30292472	     -5.80845237	    -16.26280451	     -9.11029533	    -66.27059694	    -25.87178103	      0.00000000	      0.00000000	     -5.34227215	     -6.80443884	     -0.98914657	    -61.61190609	    -32.60854112	      0.00000000	      0.00000000	      0.00000000	      0.00000000	      0.00000000
      5.58000000	     74.68058679	      0.62617265	     -2.23498321	      0.53344890	      0.96891335	     -0.30293179	     -5.78807450	    -16.26427892	     -9.10092963	    -66.27736327	    -25.90117723	      0.00000000	      0.00000000	     -5.32164601	     -6.81658708	     -0.96935475	    -61.58061866	    -32.59076194	      0.00000000	      0.00000000	      0.00000000	      0.00000000	      0.00000000
      5.59000000	     74.66008306	      0.62863798	     -2.23699244	      0.53345133	      0.96890428	     -0.30294182	     -5.75836472	    -16.26845801	     -9.09301332	    -66.28615565	    -25.92375956	      0.00000000	      0.00000000	     -5.29254361	     -6.82754277	     -0.94258304	    -61.54628961	    -32.56462120	      0.00000000	      0.00000000	      0.00000000	      0.00000000	      0.00000000
